<mxfile host="app.diagrams.net" modified="2023-07-09T13:29:14.368Z" agent="Mozilla/5.0 (Windows NT 10.0; Win64; x64) AppleWebKit/537.36 (KHTML, like Gecko) Chrome/114.0.0.0 Safari/537.36" etag="X79IvVRrGuyd3yt0EQjK" version="21.6.1" type="github">
  <diagram name="Page-1" id="TKUgEypeXZtVD_vTuLhf">
    <mxGraphModel dx="880" dy="476" grid="1" gridSize="10" guides="1" tooltips="1" connect="1" arrows="1" fold="1" page="1" pageScale="1" pageWidth="850" pageHeight="1100" math="0" shadow="0">
      <root>
        <mxCell id="0" />
        <mxCell id="1" parent="0" />
        <mxCell id="yRp9nRc9tj9H9VYQN4a1-1" value="&lt;font style=&quot;font-size: 20px;&quot;&gt;AWS RDS MySQL Database&lt;/font&gt;" style="rounded=1;whiteSpace=wrap;html=1;fillColor=#1ba1e2;fontColor=#ffffff;strokeColor=#006EAF;fontFamily=Verdana;fontSize=20;fontStyle=1" vertex="1" parent="1">
          <mxGeometry x="80" y="40" width="680" height="120" as="geometry" />
        </mxCell>
        <mxCell id="yRp9nRc9tj9H9VYQN4a1-2" value="" style="rounded=0;whiteSpace=wrap;html=1;fillColor=#dae8fc;gradientColor=#7ea6e0;strokeColor=#6c8ebf;" vertex="1" parent="1">
          <mxGeometry x="160" y="280" width="160" height="80" as="geometry" />
        </mxCell>
        <mxCell id="yRp9nRc9tj9H9VYQN4a1-4" value="" style="rounded=0;whiteSpace=wrap;html=1;fillColor=#f8cecc;gradientColor=#ea6b66;strokeColor=#b85450;" vertex="1" parent="1">
          <mxGeometry x="520" y="280" width="160" height="80" as="geometry" />
        </mxCell>
        <mxCell id="yRp9nRc9tj9H9VYQN4a1-5" value="" style="endArrow=none;dashed=1;html=1;dashPattern=1 3;strokeWidth=2;rounded=0;" edge="1" parent="1">
          <mxGeometry width="50" height="50" relative="1" as="geometry">
            <mxPoint x="80" y="1160" as="sourcePoint" />
            <mxPoint x="80" y="520" as="targetPoint" />
            <Array as="points">
              <mxPoint x="80" y="660" />
            </Array>
          </mxGeometry>
        </mxCell>
        <mxCell id="yRp9nRc9tj9H9VYQN4a1-6" value="" style="endArrow=none;dashed=1;html=1;dashPattern=1 3;strokeWidth=2;rounded=0;" edge="1" parent="1">
          <mxGeometry width="50" height="50" relative="1" as="geometry">
            <mxPoint x="760" y="1160" as="sourcePoint" />
            <mxPoint x="760" y="520" as="targetPoint" />
            <Array as="points">
              <mxPoint x="760" y="660" />
            </Array>
          </mxGeometry>
        </mxCell>
        <mxCell id="yRp9nRc9tj9H9VYQN4a1-7" value="" style="endArrow=none;dashed=1;html=1;rounded=0;" edge="1" parent="1">
          <mxGeometry width="50" height="50" relative="1" as="geometry">
            <mxPoint x="80" y="520" as="sourcePoint" />
            <mxPoint x="760" y="520" as="targetPoint" />
          </mxGeometry>
        </mxCell>
        <mxCell id="yRp9nRc9tj9H9VYQN4a1-8" value="" style="endArrow=none;dashed=1;html=1;rounded=0;" edge="1" parent="1">
          <mxGeometry width="50" height="50" relative="1" as="geometry">
            <mxPoint x="80" y="1160" as="sourcePoint" />
            <mxPoint x="760" y="1160" as="targetPoint" />
          </mxGeometry>
        </mxCell>
        <mxCell id="yRp9nRc9tj9H9VYQN4a1-9" value="&lt;font face=&quot;Verdana&quot; style=&quot;font-size: 15px;&quot;&gt;&lt;b&gt;EC2 Instance &lt;br&gt;(Docker Host)&lt;/b&gt;&lt;/font&gt;" style="whiteSpace=wrap;html=1;aspect=fixed;fillColor=#fa6800;fontColor=#000000;strokeColor=#C73500;align=center;" vertex="1" parent="1">
          <mxGeometry x="160" y="600" width="160" height="160" as="geometry" />
        </mxCell>
        <mxCell id="yRp9nRc9tj9H9VYQN4a1-10" value="&lt;b&gt;&lt;font face=&quot;Verdana&quot; style=&quot;font-size: 15px;&quot;&gt;EC2 Instance (Jenkins Host)&lt;/font&gt;&lt;/b&gt;" style="whiteSpace=wrap;html=1;aspect=fixed;fillColor=#fa6800;fontColor=#000000;strokeColor=#C73500;align=center;" vertex="1" parent="1">
          <mxGeometry x="520" y="600" width="160" height="160" as="geometry" />
        </mxCell>
        <mxCell id="yRp9nRc9tj9H9VYQN4a1-11" value="&lt;b&gt;&lt;font style=&quot;font-size: 13px;&quot; face=&quot;Verdana&quot;&gt;Docker Engine&lt;/font&gt;&lt;/b&gt;" style="rounded=0;whiteSpace=wrap;html=1;dashed=1;dashPattern=8 8;fillColor=#dae8fc;strokeColor=#6c8ebf;align=center;" vertex="1" parent="1">
          <mxGeometry x="160" y="860" width="160" height="80" as="geometry" />
        </mxCell>
        <mxCell id="yRp9nRc9tj9H9VYQN4a1-12" value="&lt;font size=&quot;1&quot; face=&quot;Verdana&quot;&gt;&lt;b style=&quot;font-size: 13px;&quot;&gt;Docker Registry&lt;/b&gt;&lt;/font&gt;" style="rounded=0;whiteSpace=wrap;html=1;dashed=1;dashPattern=8 8;fillColor=#dae8fc;strokeColor=#6c8ebf;" vertex="1" parent="1">
          <mxGeometry x="160" y="1040" width="160" height="80" as="geometry" />
        </mxCell>
        <mxCell id="yRp9nRc9tj9H9VYQN4a1-16" value="" style="endArrow=classic;startArrow=classic;html=1;rounded=0;exitX=0.5;exitY=0;exitDx=0;exitDy=0;entryX=0.235;entryY=1.008;entryDx=0;entryDy=0;entryPerimeter=0;" edge="1" parent="1" source="yRp9nRc9tj9H9VYQN4a1-2" target="yRp9nRc9tj9H9VYQN4a1-1">
          <mxGeometry width="50" height="50" relative="1" as="geometry">
            <mxPoint x="400" y="290" as="sourcePoint" />
            <mxPoint x="450" y="240" as="targetPoint" />
          </mxGeometry>
        </mxCell>
        <mxCell id="yRp9nRc9tj9H9VYQN4a1-22" value="" style="endArrow=classic;html=1;rounded=0;dashed=1;exitX=0.5;exitY=0;exitDx=0;exitDy=0;entryX=0.5;entryY=1;entryDx=0;entryDy=0;" edge="1" parent="1" source="yRp9nRc9tj9H9VYQN4a1-12" target="yRp9nRc9tj9H9VYQN4a1-11">
          <mxGeometry width="50" height="50" relative="1" as="geometry">
            <mxPoint x="400" y="890" as="sourcePoint" />
            <mxPoint x="280" y="1000" as="targetPoint" />
          </mxGeometry>
        </mxCell>
        <mxCell id="yRp9nRc9tj9H9VYQN4a1-23" value="" style="endArrow=classic;html=1;rounded=0;dashed=1;exitX=0.456;exitY=1.006;exitDx=0;exitDy=0;exitPerimeter=0;" edge="1" parent="1" source="yRp9nRc9tj9H9VYQN4a1-10">
          <mxGeometry width="50" height="50" relative="1" as="geometry">
            <mxPoint x="400" y="990" as="sourcePoint" />
            <mxPoint x="320" y="1080" as="targetPoint" />
          </mxGeometry>
        </mxCell>
        <mxCell id="yRp9nRc9tj9H9VYQN4a1-25" style="edgeStyle=orthogonalEdgeStyle;rounded=0;orthogonalLoop=1;jettySize=auto;html=1;entryX=1;entryY=0.5;entryDx=0;entryDy=0;" edge="1" parent="1" source="yRp9nRc9tj9H9VYQN4a1-24" target="yRp9nRc9tj9H9VYQN4a1-4">
          <mxGeometry relative="1" as="geometry" />
        </mxCell>
        <mxCell id="yRp9nRc9tj9H9VYQN4a1-24" value="&lt;font style=&quot;font-size: 15px;&quot;&gt;&lt;b&gt;GitHub&lt;/b&gt;&lt;/font&gt;" style="whiteSpace=wrap;html=1;aspect=fixed;fillColor=#f5f5f5;fontColor=#333333;strokeColor=#666666;align=center;" vertex="1" parent="1">
          <mxGeometry x="800" y="280" width="80" height="80" as="geometry" />
        </mxCell>
        <mxCell id="yRp9nRc9tj9H9VYQN4a1-26" value="" style="endArrow=classic;html=1;rounded=0;exitX=0.5;exitY=0;exitDx=0;exitDy=0;entryX=0.5;entryY=1;entryDx=0;entryDy=0;dashed=1;dashPattern=8 8;" edge="1" parent="1" source="yRp9nRc9tj9H9VYQN4a1-11" target="yRp9nRc9tj9H9VYQN4a1-9">
          <mxGeometry width="50" height="50" relative="1" as="geometry">
            <mxPoint x="350" y="760" as="sourcePoint" />
            <mxPoint x="400" y="710" as="targetPoint" />
          </mxGeometry>
        </mxCell>
        <mxCell id="yRp9nRc9tj9H9VYQN4a1-27" value="" style="endArrow=classic;html=1;rounded=0;entryX=0.5;entryY=1;entryDx=0;entryDy=0;exitX=0.5;exitY=0;exitDx=0;exitDy=0;" edge="1" parent="1" source="yRp9nRc9tj9H9VYQN4a1-9" target="yRp9nRc9tj9H9VYQN4a1-2">
          <mxGeometry width="50" height="50" relative="1" as="geometry">
            <mxPoint x="350" y="460" as="sourcePoint" />
            <mxPoint x="400" y="410" as="targetPoint" />
          </mxGeometry>
        </mxCell>
      </root>
    </mxGraphModel>
  </diagram>
</mxfile>
